<svg width="199" height="72" viewBox="0 0 199 72" fill="none" xmlns="http://www.w3.org/2000/svg">
<path d="M38.474 9.056V11.744H33.794V26H30.41V11.744H25.754V9.056H38.474ZM54.6888 26H51.3048L43.7208 14.48V26H40.3368V9.056H43.7208L51.3048 20.672V9.056H54.6888V26ZM65.5988 8.888C67.6628 8.888 69.3748 9.4 70.7348 10.424C72.0948 11.432 72.9668 12.8 73.3508 14.528H69.7988C69.4628 13.76 68.9268 13.152 68.1908 12.704C67.4708 12.24 66.6148 12.008 65.6228 12.008C64.6468 12.008 63.7828 12.232 63.0308 12.68C62.2788 13.128 61.6948 13.768 61.2788 14.6C60.8628 15.432 60.6548 16.408 60.6548 17.528C60.6548 19.304 61.1268 20.688 62.0708 21.68C63.0308 22.672 64.3348 23.168 65.9828 23.168C67.1988 23.168 68.2388 22.808 69.1028 22.088C69.9828 21.368 70.5508 20.368 70.8068 19.088H65.0708V16.664H73.6388V19.928C73.3988 21.048 72.9268 22.08 72.2228 23.024C71.5348 23.968 70.6228 24.728 69.4868 25.304C68.3668 25.864 67.0788 26.144 65.6228 26.144C63.9588 26.144 62.4868 25.784 61.2068 25.064C59.9428 24.328 58.9588 23.312 58.2548 22.016C57.5668 20.704 57.2228 19.208 57.2228 17.528C57.2228 15.848 57.5668 14.36 58.2548 13.064C58.9588 11.752 59.9428 10.728 61.2068 9.992C62.4708 9.256 63.9348 8.888 65.5988 8.888ZM91.7193 22.592H84.9273L83.7273 26H80.1513L86.3913 9.248H90.2553L96.4713 26H92.8953L91.7193 22.592ZM90.8073 20.024L88.3113 12.872L85.8153 20.024H90.8073ZM101.682 9.056V26H98.2977V9.056H101.682ZM113.575 26L109.615 19.4H108.127V26H104.743V9.056H111.199C113.167 9.056 114.663 9.536 115.687 10.496C116.727 11.456 117.247 12.72 117.247 14.288C117.247 15.568 116.887 16.64 116.167 17.504C115.463 18.368 114.439 18.944 113.095 19.232L117.319 26H113.575ZM108.127 17.072H110.911C112.847 17.072 113.815 16.216 113.815 14.504C113.815 13.688 113.575 13.056 113.095 12.608C112.631 12.144 111.903 11.912 110.911 11.912H108.127V17.072ZM127.188 8.888C129.3 8.888 131.052 9.432 132.444 10.52C133.836 11.608 134.756 13.088 135.204 14.96H131.652C131.284 14.048 130.708 13.328 129.924 12.8C129.156 12.272 128.228 12.008 127.14 12.008C126.244 12.008 125.436 12.232 124.716 12.68C123.996 13.128 123.436 13.768 123.036 14.6C122.636 15.432 122.436 16.408 122.436 17.528C122.436 18.632 122.636 19.6 123.036 20.432C123.436 21.264 123.996 21.904 124.716 22.352C125.436 22.8 126.244 23.024 127.14 23.024C128.228 23.024 129.156 22.76 129.924 22.232C130.708 21.704 131.284 20.984 131.652 20.072H135.204C134.756 21.944 133.836 23.424 132.444 24.512C131.052 25.6 129.3 26.144 127.188 26.144C125.572 26.144 124.14 25.784 122.892 25.064C121.66 24.328 120.7 23.304 120.012 21.992C119.34 20.68 119.004 19.192 119.004 17.528C119.004 15.848 119.34 14.352 120.012 13.04C120.7 11.728 121.66 10.712 122.892 9.992C124.124 9.256 125.556 8.888 127.188 8.888ZM145.687 8.816C147.271 8.816 148.703 9.184 149.983 9.92C151.279 10.656 152.295 11.688 153.031 13.016C153.783 14.328 154.159 15.816 154.159 17.48C154.159 19.144 153.783 20.64 153.031 21.968C152.295 23.296 151.279 24.328 149.983 25.064C148.703 25.8 147.271 26.168 145.687 26.168C144.103 26.168 142.663 25.8 141.367 25.064C140.087 24.328 139.071 23.296 138.319 21.968C137.583 20.64 137.215 19.144 137.215 17.48C137.215 15.816 137.583 14.328 138.319 13.016C139.071 11.688 140.087 10.656 141.367 9.92C142.663 9.184 144.103 8.816 145.687 8.816ZM145.687 11.936C144.695 11.936 143.823 12.16 143.071 12.608C142.319 13.056 141.727 13.704 141.295 14.552C140.879 15.384 140.671 16.36 140.671 17.48C140.671 18.6 140.879 19.584 141.295 20.432C141.727 21.264 142.319 21.904 143.071 22.352C143.823 22.8 144.695 23.024 145.687 23.024C146.679 23.024 147.551 22.8 148.303 22.352C149.055 21.904 149.639 21.264 150.055 20.432C150.487 19.584 150.703 18.6 150.703 17.48C150.703 16.36 150.487 15.384 150.055 14.552C149.639 13.704 149.055 13.056 148.303 12.608C147.551 12.16 146.679 11.936 145.687 11.936ZM171.056 26H167.672L160.088 14.48V26H156.704V9.056H160.088L167.672 20.672V9.056H171.056V26Z" fill="black"/>
<path d="M13.4143 62H11.7103L4.94225 47.864L2.44625 62H0.74225L3.71825 45.104H5.42225L12.2143 59.264L14.6863 45.104H16.3903L13.4143 62ZM21.4948 46.448L20.3668 52.832H26.9908L26.7268 54.152H20.1268L18.9988 60.608H26.3188L26.0788 62H17.0548L20.0308 45.08H29.0547L28.8148 46.448H21.4948ZM52.2159 45.08L44.8719 62H42.8559L41.1759 47.504L34.3839 62H32.3679L30.9759 45.08H32.8479L33.7599 59.912L40.6479 45.08H42.5439L44.2239 59.936L50.3679 45.08H52.2159ZM68.7493 44.936C70.6533 44.936 72.1813 45.424 73.3333 46.4C74.4853 47.36 75.1813 48.656 75.4213 50.288H73.6693C73.4293 49.152 72.8533 48.232 71.9413 47.528C71.0453 46.824 69.8933 46.472 68.4853 46.472C67.2693 46.472 66.1173 46.76 65.0293 47.336C63.9573 47.912 63.0453 48.736 62.2933 49.808C61.5413 50.88 61.0373 52.128 60.7812 53.552C60.6853 54.128 60.6373 54.68 60.6373 55.208C60.6373 56.92 61.1333 58.264 62.1253 59.24C63.1333 60.2 64.4693 60.68 66.1333 60.68C67.2693 60.68 68.3573 60.432 69.3973 59.936C70.4373 59.424 71.3333 58.688 72.0853 57.728C72.8373 56.768 73.3733 55.64 73.6933 54.344H66.6613L66.8773 53.072H75.3733L75.1093 54.56C74.7573 56.032 74.1333 57.344 73.2373 58.496C72.3573 59.648 71.2693 60.552 69.9733 61.208C68.6933 61.848 67.2853 62.168 65.7493 62.168C64.3573 62.168 63.1413 61.888 62.1013 61.328C61.0613 60.768 60.2613 59.976 59.7013 58.952C59.1573 57.928 58.8853 56.736 58.8853 55.376C58.8853 54.72 58.9413 54.088 59.0533 53.48C59.3413 51.832 59.9413 50.36 60.8533 49.064C61.7813 47.768 62.9253 46.76 64.2853 46.04C65.6613 45.304 67.1493 44.936 68.7493 44.936ZM81.3307 46.448L80.2027 52.832H86.8267L86.5627 54.152H79.9627L78.8347 60.608H86.1547L85.9147 62H76.8907L79.8667 45.08H88.8907L88.6507 46.448H81.3307ZM101.516 62H99.8118L93.0438 47.864L90.5478 62H88.8438L91.8198 45.104H93.5238L100.316 59.264L102.788 45.104H104.492L101.516 62ZM109.596 46.448L108.468 52.832H115.092L114.828 54.152H108.228L107.1 60.608H114.42L114.18 62H105.156L108.132 45.08H117.156L116.916 46.448H109.596ZM125.269 45.08C126.917 45.08 128.141 45.424 128.941 46.112C129.757 46.8 130.165 47.744 130.165 48.944C130.165 49.344 130.133 49.712 130.069 50.048C129.813 51.456 129.213 52.576 128.269 53.408C127.325 54.24 126.085 54.736 124.549 54.896L128.101 62H126.181L122.773 54.944H120.037L118.813 62H117.109L120.085 45.08H125.269ZM128.341 50.144C128.405 49.696 128.437 49.392 128.437 49.232C128.437 47.44 127.261 46.544 124.909 46.544H121.549L120.277 53.672H123.637C126.373 53.672 127.941 52.496 128.341 50.144ZM141.286 57.872H133.605L131.35 62H129.525L138.694 45.464H140.59L143.902 62H142.078L141.286 57.872ZM141.046 56.528L139.318 47.408L134.326 56.528H141.046ZM159.107 45.08L158.867 46.448H154.043L151.307 62H149.627L152.363 46.448H147.563L147.803 45.08H159.107ZM163.063 45.08L160.087 62H158.383L161.359 45.08H163.063ZM174.191 44.888C175.615 44.888 176.847 45.184 177.887 45.776C178.943 46.352 179.751 47.168 180.311 48.224C180.887 49.264 181.175 50.48 181.175 51.872C181.175 52.528 181.119 53.16 181.007 53.768C180.719 55.4 180.127 56.856 179.231 58.136C178.335 59.416 177.215 60.416 175.871 61.136C174.527 61.84 173.071 62.192 171.503 62.192C170.063 62.192 168.815 61.904 167.759 61.328C166.703 60.736 165.895 59.92 165.335 58.88C164.775 57.824 164.495 56.6 164.495 55.208C164.495 54.552 164.551 53.912 164.663 53.288C164.951 51.656 165.543 50.208 166.439 48.944C167.335 47.664 168.455 46.672 169.799 45.968C171.143 45.248 172.607 44.888 174.191 44.888ZM174.023 46.448C172.807 46.448 171.655 46.736 170.567 47.312C169.495 47.872 168.583 48.688 167.831 49.76C167.095 50.816 166.599 52.056 166.343 53.48C166.247 54.056 166.199 54.592 166.199 55.088C166.199 56.8 166.695 58.152 167.687 59.144C168.679 60.12 169.999 60.608 171.647 60.608C172.879 60.608 174.031 60.328 175.103 59.768C176.191 59.192 177.103 58.376 177.839 57.32C178.591 56.248 179.095 55.008 179.351 53.6C179.447 53.024 179.495 52.488 179.495 51.992C179.495 50.28 178.991 48.928 177.983 47.936C176.991 46.944 175.671 46.448 174.023 46.448ZM195.289 62H193.585L186.817 47.864L184.321 62H182.617L185.593 45.104H187.297L194.089 59.264L196.561 45.104H198.265L195.289 62Z" fill="black"/>
</svg>
